<?xml version="1.0" encoding="UTF-8"?><svg id="Layer_2" xmlns="http://www.w3.org/2000/svg" viewBox="0 0 45.44 48.52"><defs><style>.cls-1{stroke:#000;stroke-miterlimit:10;}</style></defs><g id="Layer_1-2"><path class="cls-1" d="M44.94,25.8c0,12.25-9.96,22.22-22.22,22.22C10.47,48.02,.5,38.05,.5,25.8c0-5.81,2.23-11.3,6.27-15.46,.57-.59,1.52-.61,2.12-.03,.59,.58,.61,1.53,.03,2.12-3.49,3.6-5.42,8.35-5.42,13.37,0,10.59,8.63,19.22,19.22,19.22,10.6,0,19.22-8.63,19.22-19.22S33.59,6.85,23.22,6.59v2.47c0,.66-.74,1.06-1.29,.69l-3.36-2.28h0l-.61-.41v2c0,.66-.75,1.06-1.3,.69l-5.31-3.59c-.47-.32-.49-1-.05-1.35L16.6,.67c.55-.42,1.35-.03,1.35,.66V3.73l3.93-3.06c.55-.42,1.34-.03,1.34,.66V3.59c12.03,.26,21.72,10.12,21.72,22.21Z"/><g><path class="cls-1" d="M19.5,20v10.5h-1.83v-7.77l-1.92,1.05v-1.8l3.64-1.98h.11Z"/><path class="cls-1" d="M30.05,27.46c0,1.93-1.44,3.31-3.53,3.31-1.33,0-2.52-.63-3.06-1.08v-1.98h.01c.93,.96,1.95,1.46,3.04,1.46,.96,0,1.75-.63,1.75-1.7,0-1.32-1.09-1.84-2.26-1.84-.79,0-1.58,.15-2.22,.34l.64-5.67h5.24v1.62h-3.83l-.29,2.34c.29-.06,.58-.09,.86-.09,2.35,0,3.63,1.5,3.63,3.28Z"/></g></g></svg>